<mxfile host="app.diagrams.net" modified="2021-02-03T02:17:40.191Z" agent="5.0 (Macintosh; Intel Mac OS X 10_14_6) AppleWebKit/537.36 (KHTML, like Gecko) Chrome/88.0.4324.96 Safari/537.36" etag="62MHq-p6PuJZp5DMKkiJ" version="14.1.1" type="github" pages="2">
  <diagram name="分布式insert" id="c7558073-3199-34d8-9f00-42111426c3f3">
    <mxGraphModel dx="2012" dy="661" grid="1" gridSize="10" guides="1" tooltips="1" connect="1" arrows="1" fold="1" page="1" pageScale="1" pageWidth="826" pageHeight="1169" background="#ffffff" math="0" shadow="0">
      <root>
        <mxCell id="0" />
        <mxCell id="1" parent="0" />
        <mxCell id="JUYqkF3Zqeg5ULWRQqSa-97" value="shard1" style="rounded=1;whiteSpace=wrap;html=1;fillColor=#ffe6cc;strokeColor=#d79b00;" vertex="1" parent="1">
          <mxGeometry x="167" y="210" width="120" height="60" as="geometry" />
        </mxCell>
        <mxCell id="JUYqkF3Zqeg5ULWRQqSa-98" value="shardN" style="rounded=1;whiteSpace=wrap;html=1;fillColor=#ffe6cc;strokeColor=#d79b00;" vertex="1" parent="1">
          <mxGeometry x="620" y="210" width="120" height="60" as="geometry" />
        </mxCell>
        <mxCell id="JUYqkF3Zqeg5ULWRQqSa-100" value="cfs" style="shape=cylinder3;whiteSpace=wrap;html=1;boundedLbl=1;backgroundOutline=1;size=15;fillColor=#e1d5e7;strokeColor=#9673a6;" vertex="1" parent="1">
          <mxGeometry x="170" y="590" width="580" height="80" as="geometry" />
        </mxCell>
        <mxCell id="JUYqkF3Zqeg5ULWRQqSa-101" value="cache" style="shape=document;whiteSpace=wrap;html=1;boundedLbl=1;fillColor=#f8cecc;strokeColor=#b85450;" vertex="1" parent="1">
          <mxGeometry x="182" y="400" width="90" height="130" as="geometry" />
        </mxCell>
        <mxCell id="JUYqkF3Zqeg5ULWRQqSa-102" value="&lt;span&gt;cache&lt;/span&gt;" style="shape=document;whiteSpace=wrap;html=1;boundedLbl=1;fillColor=#f8cecc;strokeColor=#b85450;" vertex="1" parent="1">
          <mxGeometry x="640" y="400" width="90" height="130" as="geometry" />
        </mxCell>
        <mxCell id="JUYqkF3Zqeg5ULWRQqSa-103" value="" style="endArrow=none;dashed=1;html=1;dashPattern=1 3;strokeWidth=2;" edge="1" parent="1">
          <mxGeometry width="50" height="50" relative="1" as="geometry">
            <mxPoint x="340" y="420" as="sourcePoint" />
            <mxPoint x="560" y="420" as="targetPoint" />
          </mxGeometry>
        </mxCell>
        <mxCell id="JUYqkF3Zqeg5ULWRQqSa-104" value="" style="endArrow=none;dashed=1;html=1;dashPattern=1 3;strokeWidth=2;" edge="1" parent="1">
          <mxGeometry width="50" height="50" relative="1" as="geometry">
            <mxPoint x="340" y="240" as="sourcePoint" />
            <mxPoint x="560" y="240" as="targetPoint" />
          </mxGeometry>
        </mxCell>
        <mxCell id="JUYqkF3Zqeg5ULWRQqSa-107" value="" style="curved=1;endArrow=classic;html=1;exitX=1.011;exitY=0.433;exitDx=0;exitDy=0;exitPerimeter=0;entryX=0;entryY=0.5;entryDx=0;entryDy=0;" edge="1" parent="1" source="JUYqkF3Zqeg5ULWRQqSa-101" target="JUYqkF3Zqeg5ULWRQqSa-102">
          <mxGeometry width="50" height="50" relative="1" as="geometry">
            <mxPoint x="390" y="500" as="sourcePoint" />
            <mxPoint x="440" y="450" as="targetPoint" />
            <Array as="points">
              <mxPoint x="440" y="500" />
              <mxPoint x="390" y="450" />
            </Array>
          </mxGeometry>
        </mxCell>
        <mxCell id="JUYqkF3Zqeg5ULWRQqSa-108" value="parts list" style="edgeLabel;html=1;align=center;verticalAlign=middle;resizable=0;points=[];" vertex="1" connectable="0" parent="JUYqkF3Zqeg5ULWRQqSa-107">
          <mxGeometry x="-0.1671" y="3" relative="1" as="geometry">
            <mxPoint as="offset" />
          </mxGeometry>
        </mxCell>
        <mxCell id="JUYqkF3Zqeg5ULWRQqSa-110" value="" style="curved=1;endArrow=classic;html=1;entryX=1.033;entryY=0.187;entryDx=0;entryDy=0;entryPerimeter=0;exitX=0;exitY=0.25;exitDx=0;exitDy=0;" edge="1" parent="1" source="JUYqkF3Zqeg5ULWRQqSa-102" target="JUYqkF3Zqeg5ULWRQqSa-101">
          <mxGeometry width="50" height="50" relative="1" as="geometry">
            <mxPoint x="390" y="440" as="sourcePoint" />
            <mxPoint x="440" y="390" as="targetPoint" />
            <Array as="points">
              <mxPoint x="440" y="440" />
              <mxPoint x="390" y="390" />
            </Array>
          </mxGeometry>
        </mxCell>
        <mxCell id="JUYqkF3Zqeg5ULWRQqSa-111" value="part list" style="edgeLabel;html=1;align=center;verticalAlign=middle;resizable=0;points=[];" vertex="1" connectable="0" parent="JUYqkF3Zqeg5ULWRQqSa-110">
          <mxGeometry x="-0.3162" y="-3" relative="1" as="geometry">
            <mxPoint as="offset" />
          </mxGeometry>
        </mxCell>
        <mxCell id="JUYqkF3Zqeg5ULWRQqSa-113" value="" style="curved=1;endArrow=classic;html=1;entryX=0.364;entryY=-0.05;entryDx=0;entryDy=0;entryPerimeter=0;" edge="1" parent="1" target="JUYqkF3Zqeg5ULWRQqSa-98">
          <mxGeometry width="50" height="50" relative="1" as="geometry">
            <mxPoint x="220" y="210" as="sourcePoint" />
            <mxPoint x="580" y="190" as="targetPoint" />
            <Array as="points">
              <mxPoint x="270" y="210" />
              <mxPoint x="220" y="160" />
            </Array>
          </mxGeometry>
        </mxCell>
        <mxCell id="JUYqkF3Zqeg5ULWRQqSa-118" value="转发" style="edgeLabel;html=1;align=center;verticalAlign=middle;resizable=0;points=[];" vertex="1" connectable="0" parent="JUYqkF3Zqeg5ULWRQqSa-113">
          <mxGeometry x="-0.0546" y="-1" relative="1" as="geometry">
            <mxPoint as="offset" />
          </mxGeometry>
        </mxCell>
        <mxCell id="JUYqkF3Zqeg5ULWRQqSa-115" value="" style="endArrow=classic;html=1;exitX=0.5;exitY=1;exitDx=0;exitDy=0;entryX=0.5;entryY=0;entryDx=0;entryDy=0;" edge="1" parent="1" source="JUYqkF3Zqeg5ULWRQqSa-97" target="JUYqkF3Zqeg5ULWRQqSa-101">
          <mxGeometry width="50" height="50" relative="1" as="geometry">
            <mxPoint x="340" y="430" as="sourcePoint" />
            <mxPoint x="390" y="380" as="targetPoint" />
          </mxGeometry>
        </mxCell>
        <mxCell id="JUYqkF3Zqeg5ULWRQqSa-117" value="insert" style="text;html=1;align=center;verticalAlign=middle;resizable=0;points=[];autosize=1;" vertex="1" parent="1">
          <mxGeometry x="40" y="44" width="40" height="20" as="geometry" />
        </mxCell>
        <mxCell id="JUYqkF3Zqeg5ULWRQqSa-119" value="metadata&lt;br&gt;node-parts" style="shape=cylinder3;whiteSpace=wrap;html=1;boundedLbl=1;backgroundOutline=1;size=15;labelBackgroundColor=none;fillColor=#b0e3e6;strokeColor=#0e8088;" vertex="1" parent="1">
          <mxGeometry x="-35" y="240" width="120" height="190" as="geometry" />
        </mxCell>
        <mxCell id="JUYqkF3Zqeg5ULWRQqSa-120" value="" style="endArrow=classic;html=1;entryX=0.444;entryY=0;entryDx=0;entryDy=0;entryPerimeter=0;exitX=0.5;exitY=1;exitDx=0;exitDy=0;" edge="1" parent="1" source="JUYqkF3Zqeg5ULWRQqSa-98" target="JUYqkF3Zqeg5ULWRQqSa-102">
          <mxGeometry width="50" height="50" relative="1" as="geometry">
            <mxPoint x="660" y="340" as="sourcePoint" />
            <mxPoint x="710" y="290" as="targetPoint" />
          </mxGeometry>
        </mxCell>
        <mxCell id="JUYqkF3Zqeg5ULWRQqSa-122" value="" style="endArrow=classic;html=1;" edge="1" parent="1">
          <mxGeometry width="50" height="50" relative="1" as="geometry">
            <mxPoint x="210" y="536" as="sourcePoint" />
            <mxPoint x="210" y="586" as="targetPoint" />
          </mxGeometry>
        </mxCell>
        <mxCell id="JUYqkF3Zqeg5ULWRQqSa-130" value="" style="endArrow=classic;html=1;" edge="1" parent="1">
          <mxGeometry width="50" height="50" relative="1" as="geometry">
            <mxPoint x="680" y="530" as="sourcePoint" />
            <mxPoint x="679.67" y="584.5" as="targetPoint" />
          </mxGeometry>
        </mxCell>
        <mxCell id="JUYqkF3Zqeg5ULWRQqSa-131" value="" style="curved=1;endArrow=classic;html=1;entryX=0.358;entryY=0;entryDx=0;entryDy=0;entryPerimeter=0;" edge="1" parent="1" target="JUYqkF3Zqeg5ULWRQqSa-97">
          <mxGeometry width="50" height="50" relative="1" as="geometry">
            <mxPoint x="50" y="90" as="sourcePoint" />
            <mxPoint x="200" y="130" as="targetPoint" />
            <Array as="points">
              <mxPoint x="200" y="180" />
              <mxPoint x="220" y="80" />
            </Array>
          </mxGeometry>
        </mxCell>
        <mxCell id="JUYqkF3Zqeg5ULWRQqSa-133" value="1" style="ellipse;whiteSpace=wrap;html=1;aspect=fixed;strokeWidth=2;fontFamily=Tahoma;spacingBottom=4;spacingRight=2;strokeColor=#b85450;labelBackgroundColor=none;fillColor=#f8cecc;gradientColor=#ea6b66;" vertex="1" parent="1">
          <mxGeometry x="460" y="370" width="30" height="30" as="geometry" />
        </mxCell>
        <mxCell id="JUYqkF3Zqeg5ULWRQqSa-135" value="2" style="ellipse;whiteSpace=wrap;html=1;aspect=fixed;strokeWidth=2;fontFamily=Tahoma;spacingBottom=4;spacingRight=2;strokeColor=#b85450;labelBackgroundColor=none;fillColor=#f8cecc;gradientColor=#ea6b66;" vertex="1" parent="1">
          <mxGeometry x="272" y="540" width="30" height="30" as="geometry" />
        </mxCell>
      </root>
    </mxGraphModel>
  </diagram>
  <diagram id="IoRBEuFxyBH-dr_34C7L" name="新增计算节点">
    <mxGraphModel dx="1186" dy="661" grid="1" gridSize="10" guides="1" tooltips="1" connect="1" arrows="1" fold="1" page="1" pageScale="1" pageWidth="827" pageHeight="1169" math="0" shadow="0">
      <root>
        <mxCell id="h8ouTheSBNoUBosQUwZE-0" />
        <mxCell id="h8ouTheSBNoUBosQUwZE-1" parent="h8ouTheSBNoUBosQUwZE-0" />
      </root>
    </mxGraphModel>
  </diagram>
</mxfile>
